/* XPM */
static char *_f8f6913ff514132b3bb53237066e933[] = {
/* columns rows colors chars-per-pixel */
"64 64 256 2 ",
"   c #000000",
".  c #080305",
"X  c #1B0101",
"o  c #180707",
"O  c #001705",
"+  c #020119",
"@  c #011D1C",
"#  c #041717",
"$  c #1C1414",
"%  c #1C1C1C",
"&  c #141817",
"*  c #1B0C0F",
"=  c #240000",
"-  c #240A0B",
";  c #231C1C",
":  c #251616",
">  c #301611",
",  c #00251D",
"<  c #04280C",
"1  c #2B291B",
"2  c #010227",
"3  c #020239",
"4  c #0D132B",
"5  c #2F1527",
"6  c #002423",
"7  c #002C2C",
"8  c #032627",
"9  c #1D2C2C",
"0  c #1A2625",
"q  c #003429",
"w  c #01283B",
"e  c #003333",
"r  c #003C3B",
"t  c #073638",
"y  c #1D3B3B",
"u  c #1A3635",
"i  c #193131",
"p  c #242424",
"a  c #232C2C",
"s  c #2B2827",
"d  c #243D3C",
"f  c #283736",
"g  c #393738",
"h  c #2F312D",
"j  c #51310F",
"k  c #7C3702",
"l  c #4D2B34",
"z  c #5C1223",
"x  c #00423D",
"c  c #14423E",
"v  c #29453A",
"b  c #366F33",
"n  c #0E5A08",
"m  c #77470D",
"M  c #4D4F2A",
"N  c #626328",
"B  c #030C46",
"V  c #013A46",
"C  c #05284A",
"Z  c #163B54",
"A  c #6D324F",
"S  c #63245A",
"D  c #014C4C",
"F  c #034644",
"G  c #1B4747",
"H  c #015556",
"J  c #185655",
"K  c #094E51",
"L  c #234444",
"P  c #2A4444",
"I  c #224C4B",
"U  c #2B4C4B",
"Y  c #254944",
"T  c #344949",
"R  c #26524D",
"E  c #235453",
"W  c #2A5353",
"Q  c #275B5A",
"!  c #365655",
"~  c #364F51",
"^  c #004F66",
"/  c #0D6F6E",
"(  c #256565",
")  c #376766",
"_  c #27776F",
"`  c #34645F",
"'  c #475756",
"]  c #565A5A",
"[  c #484E48",
"{  c #4B6D55",
"}  c #576768",
"|  c #506D6D",
" . c #676867",
".. c #697777",
"X. c #767B79",
"o. c #706E6E",
"O. c #6A5F59",
"+. c #8F1525",
"@. c #8C5607",
"#. c #885617",
"$. c #945D16",
"%. c #8A4E08",
"&. c #976811",
"*. c #A97605",
"=. c #AC7A15",
"-. c #B3740B",
";. c #97692F",
":. c #A9732E",
">. c #975822",
",. c #C97A2B",
"<. c #DA7416",
"1. c #A83753",
"2. c #9A2557",
"3. c #D40656",
"4. c #E20359",
"5. c #E3004F",
"6. c #FF036A",
"7. c #FC0266",
"8. c #FE166A",
"9. c #E02E6C",
"0. c #AE4F4C",
"q. c #A7496C",
"w. c #AF5474",
"e. c #985D55",
"r. c #CD6E4C",
"t. c #CD4D70",
"y. c #D75E62",
"u. c #2B9D34",
"i. c #679530",
"p. c #4AAC34",
"a. c #59A31C",
"s. c #5EF700",
"d. c #5AE709",
"f. c #65FD01",
"g. c #69FF01",
"h. c #60F300",
"j. c #65EC0A",
"k. c #6BCB11",
"l. c #1A9573",
"z. c #6A984B",
"x. c #708C6D",
"c. c #72B06B",
"v. c #639F4E",
"b. c #7ACE66",
"n. c #B88504",
"m. c #B78917",
"M. c #BE9219",
"N. c #AC8512",
"B. c #B68926",
"V. c #B69030",
"C. c #A1AC1E",
"Z. c #CB8F0B",
"A. c #FE9A00",
"S. c #F59703",
"D. c #EA9610",
"F. c #D1A80D",
"G. c #C39828",
"H. c #CB922F",
"J. c #FE9A34",
"K. c #FA9833",
"L. c #EC9630",
"P. c #CAA539",
"I. c #D1AA33",
"U. c #F7A82E",
"Y. c #F9A608",
"T. c #A3CE24",
"R. c #C2CB0F",
"E. c #F0D900",
"W. c #F0F003",
"Q. c #D2E302",
"!. c #B89746",
"~. c #A0A65E",
"^. c #D4904A",
"/. c #CAAA47",
"(. c #D5B549",
"). c #D9BB55",
"_. c #CEAC4D",
"`. c #D4BC67",
"'. c #DF9966",
"]. c #95CB48",
"[. c #A7D04A",
"{. c #A7E64D",
"}. c #ABEB51",
"|. c #A5EB51",
" X c #AFF153",
".X c #97D772",
"XX c #DEC25C",
"oX c #E4C552",
"OX c #DCC76B",
"+X c #E5CC68",
"@X c #E9D26A",
"#X c #E9D677",
"$X c #F2DE78",
"%X c #EBD572",
"&X c #F5E27B",
"*X c #EEE378",
"=X c #137284",
"-X c #B14FAB",
";X c #A4548A",
":X c #CD538C",
">X c #F45897",
",X c #D16B89",
"<X c #FE689B",
"1X c #EF7295",
"2X c #FF6AA2",
"3X c #D058AC",
"4X c #D53482",
"5X c #148D8D",
"6X c #109090",
"7X c #0FB1B1",
"8X c #259F98",
"9X c #798585",
"0X c #72898C",
"qX c #55ACA8",
"wX c #57AA8F",
"eX c #2DC9B4",
"rX c #75D288",
"tX c #59DFA2",
"yX c #27B4C3",
"uX c #01CACB",
"iX c #02D5D5",
"pX c #10CBCA",
"aX c #2AD1CF",
"sX c #32ECD0",
"dX c #08E5E5",
"fX c #00FEFE",
"gX c #08F7F7",
"hX c #18F9F7",
"jX c #27F2E5",
"kX c #6ECFC9",
"lX c #5CE9DA",
"zX c #838989",
"xX c #8B9695",
"cX c #94999A",
"vX c #928C8C",
"bX c #98A6A7",
"nX c #91A9AB",
"mX c #A4AAAC",
"MX c #AAB6B6",
"NX c #B5B8B8",
"BX c #AEADAD",
"VX c #A4AB95",
"CX c #F0AD91",
"ZX c #A6D29B",
"AX c #ECDA88",
"SX c #EFD28B",
"DX c #F7E887",
"FX c #FEF495",
"GX c #F7ED8F",
"HX c #E6E79E",
"JX c #BBC4C4",
"KX c #A9F3E0",
"LX c #C9CDCD",
"PX c #F2EEEB",
"IX c #F1E9D2",
"UX c None",
/* pixels */
"UXUXUXUXUXUXUXUXUXUXUXUXUXUXUXUXUXUXUXUXUXUXUXUXUXUXUXUXUXUXUXUXUXUXUXUXUXUXUXUXUXUXUXUXUXUXUXUXUXUXUXUXUXUXUXUXUXUXUXUXUXUXUXUX",
"UXUXUXUXUXUXUXUXUXUXUXUXUXUXUXUXUXUXUXUXUXUXUXUXUXT.{.{.].T.T.ZX[.R.R.R.Q.W.UXUXUXUXUXUXUXUXUXUXUXUXUXUXUXUXUXUXUXUXUXUXUXUXUXUX",
"UXUXUXUXUXUXUXUXUXUXUXUXUXUXUXUXUXUXUXUXUX.X|.].i.ZX{ i C 3 } PX9X3 B ~ NXz.C.R.Q.W.UXUXUXUXUXUXUXUXUXUXUXUXUXUXUXUXUXUXUXUXUXUX",
"UXUXUXUXUXUXUXUXUXUXUXUXUXUXUXUXUXUXUX.Xb.z.n 3 ^ MX' F W y | z.` v v ` vXB B B v ~.AXW.UXUXUXUXUXUXUXUXUXUXUXUXUXUXUXUXUXUXUXUX",
"UXUXUXUXUXUXUXUXUXUXUXUXUXUXUXUXUXb.b.{ 3 C ..( ! x u 9 : w z.k.p.B - o # R 1   + Q mX{ R.W.UXUXUXUXUXUXUXUXUXUXUXUXUXUXUXUXUXUX",
"UXUXUXUXUXUXUXUXUXUXUXUXUXUXUXrXrXx.3 J F } JXu % T $ X E t [.p.h.Q i $ ; f J  .! i . ^ C h R.W.UXUXUXUXUXUXUXUXUXUXUXUXUXUXUXUX",
"UXUXUXUXUXUXUXUXUXUXUXUXUXUXrXu.cXmX, v ; u F 9 $ Y X R w N  Xi.g.a.Z s ; o 8 JX0X6 U f Q 0X^ N W.W.UXUXUXUXUXUXUXUXUXUXUXUXUXUX",
"UXUXUXUXUXUXUXUXUXUXUXUXtXtXy Z D x - $ % I f P p y I R   ]. Xi.f.d.4 F & E L   J E y f   mXxXV C R.W.UXUXUXUXUXUXUXUXUXUXUXUXUX",
"UXUXUXUXUXUXUXUXUXUXUXtXwX+ I   G P i X L y : 7   Q I   M {.|.i.s.g.n MXxX  ; ; u E I G -   r h G =X`.W.UXUXUXUXUXUXUXUXUXUXUXUX",
"UXUXUXUXUXUXUXUXUXUXsXl.O E s cXg i L * R p   zX0XH f 3 ].}.{.v.s.g.d.S ' . p % X I u d E f L 0   ..nXN E.UXUXUXUXUXUXUXUXUXUXUX",
"UXUXUXUXUXUXUXUXUXsXwXzX) x ) mXg # U L c p   xXnXD E v ].|.}.i.s.f.d.n w Y o 0 % % W   & I E ' :   q ^ N E.UXUXUXUXUXUXUXUXUXUX",
"UXUXUXUXUXUXUXUXsX8X* MX[ J y   . - 7 F ; X d F 7 v 2 i.|.{.|.i.s.f.f.p.+ R $ $ % * i 9Xg   ~ LX~ & d r C N W.UXUXUXUXUXUXUXUXUX",
"UXUXUXUXUXUXUXjXeX. K . G i X ! ~   mXbX  P J = I c   ].{.{.{.v.s.f.g.j.4 W J t L I D NX]   a ~ d U e 9XO.C ;.E.UXUXUXUXUXUXUXUX",
"UXUXUXUXUXUXUXaX. ` ' ( L y Y r 7 J } } H H L i ' ` N }.{.{.}.i.s.f.f.g.p.3 { T G I a   F X c y X - 6 MX9Xq ^ /.E.UXUXUXUXUXUXUX",
"UXUXUXUXUXUXjXf e xXMXD W P   xXcX. .   _ ] g   cXmXk.{.{.{.{.i.h.g.f.g.p.2 MXmX  : o p U % L 0 * R U   e   cXbXF.UXUXUXUXUXUXUX",
"UXUXUXUXUXhX6X8 Q L u L p a F 9X9X  & ` e JX .O I 1 {.{.{.{.}.i.s.f.f.f.g.{ + E E G d X d y y i W 6   h U o X D ] Y.UXUXUXUXUXUX",
"UXUXUXUXUXiXBX0X  L 0 e * I U   # X.| K v 8 Q Q   i. X{.{.{.}.i.s.f.f.f.s.k.+ % E u Y E i R E E 6 o.]   U a & ' V V.U.UXUXUXUXUX",
"UXUXUXUXgX/  .{ L ( L ] E y     I PXNX  2 - ` Q + ].}.{.{.}. Xz.s.f.f.f.f.h.9 * 0 Q 0 = @ PXNX  7 MX9X6 E F O NXzX2 L.UXUXUXUXUX",
"UXUXUXUXpX= e 7   Y d LX] . ] } H ] ;.H.=.K @ 3 z.{.}.}.{.[.].i.k.j.h.s.s.f.a.2 - X Y _ =XxXX.7 p F # . ] }   h ! ^ :.J.UXUXUXUX",
"UXUXUXfX5Xh   9XmX  - U d   bXbX  2 >.-.^.^.-.> ].}.].C.=.=.-.n.m.-.N.N.k.f.d.= v 5XyX7XqXF   W ( f U   zXMX7 d 9 Q V Z.UXUXUXUX",
"UXUXUXaXO.G V ..9XD : y d f r   d C j ^.e.Z.U.I.].B.-.-.n.m.m.m.Z.M.m.m.-.:.k.8XyXaX8XqXqX- h i Q I G - r r ( L f , xXCXUXUXUXUX",
"UXUXgXkXBX6 f r 6 d J d 6 F p ; f g w :.D.e.!.V.*.n.N.m.M.M.m.N.m.m.Z.M.m.=.Z.~.yX6XqXkX) e   E o i ( y Y a G E Y   0XzXL.UXUXUX",
"UXUXdX/ e $ y L U o a r bX..  s   e H O.^.^.;.n.m.m.M.N.@.@.#.&.$.#.@.*.M.m.B.n.:.qXlXqX  | cX, ; X d ) I X I 9 G ! c 8 r.UXUXUX",
"UXUXpX= U 8 G a y - ;   cXo.@ e x.MX@   r.H.n.m.M.m.@.;./.).oXoXoX)._.V.%.-.M.V.Z.~.kX=X   .MX7 a $ o 7 J L & W   zXNX  0.UXUXUX",
"UXUXpX= 8 ..~ u G 0 u d F r ` D } 0X/ 7XnXZ.G.G.B.@._.%X$X$X$X$X$X$X$X&XXX&.=.P.P.Z.'.:XA     I T L T BXg c E L i U g r A r.UXUX",
"UXgX8X-   NXo.D Y L JX| / Y X p / 7XuXaX/.I.P.P.&.OXGX&XDX%X).XX).OXDXDXGXDX:.H././.G.1X2X,Xq.G   , T mX) # f E Q y . c M y.UXUX",
"UXdX( % L 8 . d u E ] = = y 6X7XiXaXuXbXF.(.).=.`.FXDXFX#X/.I.n.*.*.`.FXGXFXAXN.).).(.'.>X<X<X1Xw.l .   R ~ T   JXX.  P , y.UXUX",
"UXdXL u E - 9 ( I =   / 7XuXiXiXuXuXuX`.).XX(.!.FXFXFXDX(.(.+X%X#X!.@.#XFXFXFX`.P.@XXXoX<X<X<X<X2X2X,XA r q F W [ ! 9 s r y.UXUX",
"UXpX$ E u 9 E 9 % 5X7XiXiXiXuXuXpXuXkX@X+X@XP.OXFXGXGX$XI.+XGXGXFXDX*.`.FXDXDXDXH.@X@X%XCX>X<X<X<X<X<X<X,Xw.5 7 D d ~ s x 0.UXUX",
"UXpX& L - a / 8XuXuXuXuXuXuXuXuXaXuXZX&X*X%XP.*X&X$XAX@XP.+X$X*X$X%X-.).&X#X#X$X_.XXAX*XCX>X<X<X<X>X<X<X<X<X<Xt.A F D G e 1.UXUX",
"UXaXh / 5X7XiXiXiXiXiXiXiXiXiXiXaXiXJX&XDX@XP.%X@X+X%XOXG.).@X+X+X+XXXXX+X+X+X+X(.oXDXGXSX>X2X2X<X2X<X<X2X2X2X1X2X>Xw.} D 2.UXUX",
"UXKXPX=X7X5X8X5X5X5X5X5X6X5X6X6X8X=XZX&XDX@X(.XXXXXXXXP.Z.(.XXXXXX).XXXXXX).).).oXSXIXFXSX2.q.q.q.q.w.q.q.q.q.w.q.q.w.2.LXIXUXUX",
"UXlXvX/ pXdXgXdXdXdXdXdXdXdXdXdXjXdXZX&XIXIX#X(.(.(.(.P.n./.(./.(.(./.(./.I._.(.SXPXFXGX+X4.5.4.4.4.4.4.4.4.4.4.4.4.3.+.xXvXUXUX",
"UX7X  % a =XiXgXgXfXfXfXfXfXfXfXhXfXKXoXAXSX#XP./.P.P.P.m.H.P.P.P.G.P./.P.P.P.I.AXDX(.F.'.6.8.7.8.7.6.7.8.6.6.6.9.2.g J . 2.UXUX",
"UXeX5 I   vXl r 7XdXfXfXfXgXfXfXhXfXKXF.n.F.*X_.M.G.H.G.m.G.G.G.G.B.(.(.M.G.G.G.AX(.n.F.'.7.8.7.7.7.7.7.7.4.3.z e F J > G q.UXUX",
"UXeX* U   mX..@ = = 5XiXfXfXfXfXhXfXjXI.M.n.AX#X*.B.m.B.=.=.m.m.=.G.XX(.*.B.*._.FXP.n.G.y.7.7.7.7.6.6.4.1.g O O 5 ) 9 ; x 1.UXUX",
"UXsXv d f     R Q y X = _ 7XgXgXfXhXfXZXZ.n.).FX/.*.=.=.B.M.m.G.P.).XXV.=.=.*.GX*Xn.M.I.6.6.8.6.7.3.+.# e J 5 p E L G h F q.UXUX",
"UXsX_ - R P % o 0 I I K X X i 7XdXhXgXlXZ.B.n.*XGX:.&.:.&.B.G.(.oXXXV.&.=.%.#XGXB.*.n.r.6.8.4.+.l O O : > e   W i X U @ 0 t.UXUX",
"UXUX8X= K q $ % $ f # MXzX  ; = - / aXgXVX*.:.*.AXGX:.%.&.&.:.:.:.:.@.%.@.OXGXV.&.&.,.6.3.A 9X..  h h f   o.0X6 p i , xXo.4XUXUX",
"UXUXwX. ' ..  y L L c | | # ; E 9 =   ] BXB.&.@.&.+X*X_.>.k k k k k #.!.$X$X:.%.$.&.'.z < . xXnXx U y P 7 zXMXr U U r mXw.4XUXUX",
"UXUXtX. X.JXH W 9 9 W r 7 Q   8 p s 8 1.8.y.*.m #.%.V.+X+X(.P.!.!._.+X@X_.%.%.#.&.~.rXb - h 6 D Q y I i =     R o X U   q.UXUXUX",
"UXUXtX_ . t d R J ( I Q P 7 0Xo.  0 > y.y.t.,XB.#.#.k %.B.P.(.(.I.P.B.@.k #.#.=.N.c..Xc.  9 P L Q I & Y E W h y d a K l :XUXUXUX",
"UXUXUXtX  Y L = G Q L E f   xXbX  6 1.t.w.1X1X'.Z.&.#.#.m k k m k k k #.#.#.Z.C.u.a.x..X1 8 ' JX~ J L = p J E L G r < 2.3XUXUXUX",
"UXUXUXrXv ; r   W X 9 Q I d   7 y = t.t.1X,Xq.5 L.L.m.&.#.#.m #.m #.#.&.m.D.S.b p.v.u.c.x.4 Q ] 0 I E 8   U a   0XNX. ;XUXUXUXUX",
"UXUXUXUXc.  x.bX  s & # & d P P K l w.w.A . O + ;.J.J.K.L.H.B.N.M.Z.D.S.S.A.-.+ 1 b p.p.z.. F   * U   cXxX@ ; 0 | ' S 3XUXUXUXUX",
"UXUXUXUXrX<  .xX  % a 9XP u U 6 NXPXg , 7 g - . j K.J.J.J.J.J.;.A.Y.A.A.S.A.M @ 1 + * n x.LX}     ; H ..o.8 p ( I   ;XUXUXUXUXUX",
"UXUXUXUXUXc.  # R X s NX' r f 7 9XcXH # 9XNXt ~ 8 ,.K.J.J.K.J.>.S.A.A.A.A.Z.2 > % 0 :   ..LX..e ] I Q #   R ( U   S 3XUXUXUXUXUX",
"UXUXUXUXUX.Xb X I L o @ o = i W e   f E p U Y U F O.U.J.J.J.J.;.S.A.A.A.A.@.+ 1 O X y Q V     ' JXP o U ~ ( E p O -XUXUXUXUXUXUX",
"UXUXUXUXUXUX.X. & E 0 U $ L E * L f X u E L L X s ^ ^.U.J.J.J.;.S.A.A.A.L.e a p g P E o ' g $ X X X X E H K f . ;X-XUXUXUXUXUXUX",
"UXUXUXUXUXUX[.~.  f J 6 L I X X L $ $ X $ I J 6 ~ 4 &.J.K.J.J.>.S.A.A.A.=.w T x JX}   # JX} 7 U L i Q K mX}   S -XUXUXUXUXUXUXUX",
"UXUXUXUXUXUXUX`.N . ] JXJ 0 y L Q y L G P   xXMX, f f L.J.J.U.e.S.A.A.S.j + : p ! - % 0 ` Q P     Q I x bXg 5 -XUXUXUXUXUXUXUXUX",
"UXUXUXUXUXUXUXUX[.N 2 X.( I f # r p 9 9 a # ' } # T C :.J.K.J.;.S.A.A.B.2 >   r u $ $ i G d r ..X.@ f E     -XUXUXUXUXUXUXUXUXUX",
"UXUXUXUXUXUXUXUXUX/.M   ! U e X.X.  a % &   t   = =   j J.J.J.;.S.A.A.O.H K ....  p $ y y U   cXxX  ` o < -XUXUXUXUXUXUXUXUXUXUX",
"UXUXUXUXUXUXUXUXUXUXP.M + !   xXcX# T @ 9XNXD U I I T F ^.J.K.;.S.A.D.V T V mXxX# ; X U 9 y T     ! . O -XUXUXUXUXUXUXUXUXUXUXUX",
"UXUXUXUXUXUXUXUXUXUXUX(.#.3 Q     Q - . g } ( % 9 0 s 2 #.K.K.;.S.A.>.+ X Y     L E &   0 a 6 # ) . s -XUXUXUXUXUXUXUXUXUXUXUXUX",
"UXUXUXUXUXUXUXUXUXUXUXUXI.*.V bXh i E 0 X # E G - p % ; # L.J.$.S.S.1 * ] E ; a % e | mXp . zXX.  S -XUXUXUXUXUXUXUXUXUXUXUXUXUX",
"UXUXUXUXUXUXUXUXUXUXUXUXUXU./.BXC Y U Q   8 p Y V   - 1 2 :.J.;.A.,.w ' JX! c L L t T cXT 8 vXX.;X3XUXUXUXUXUXUXUXUXUXUXUXUXUXUX",
"UXUXUXUXUXUXUXUXUXUXUXUXUXUXUXZ.=.@ w D ..9Xe   xXBX7 P V [ K.;.D.m w W U s * X X 9 d # e < S ;X-XUXUXUXUXUXUXUXUXUXUXUXUXUXUXUX",
"UXUXUXUXUXUXUXUXUXUXUXUXUXUXUXUXU.H.:.  ..BXD W ]  .e U s   H.:.n.8 Q ; .   s P U G q # A ;X,XUXUXUXUXUXUXUXUXUXUXUXUXUXUXUXUXUX",
"UXUXUXUXUXUXUXUXUXUXUXUXUXUXUXUXUXUXL.H.*.= + w r e  .f ~ r #.@.m H h . cXcX@ r   5 e.w.:XUXUXUXUXUXUXUXUXUXUXUXUXUXUXUXUXUXUXUX",
"UXUXUXUXUXUXUXUXUXUXUXUXUXUXUXUXUXUXUXUXUXL.,.:.k  .NX7 w F ^ LX0X7 x x ..o.z e.w.,X,XUXUXUXUXUXUXUXUXUXUXUXUXUXUXUXUXUXUXUXUXUX",
"UXUXUXUXUXUXUXUXUXUXUXUXUXUXUXUXUXUXUXUXUXUXUXUXL.,.<.:.r.;.e.PXvX>.0.0.0.0.,Xy.UXUXUXUXUXUXUXUXUXUXUXUXUXUXUXUXUXUXUXUXUXUXUXUX",
"UXUXUXUXUXUXUXUXUXUXUXUXUXUXUXUXUXUXUXUXUXUXUXUXUXUXUXUXUXUXUXUXUXUXUXUXUXUXUXUXUXUXUXUXUXUXUXUXUXUXUXUXUXUXUXUXUXUXUXUXUXUXUXUX",
"UXUXUXUXUXUXUXUXUXUXUXUXUXUXUXUXUXUXUXUXUXUXUXUXUXUXUXUXUXUXUXUXUXUXUXUXUXUXUXUXUXUXUXUXUXUXUXUXUXUXUXUXUXUXUXUXUXUXUXUXUXUXUXUX"
};
