/* XPM */
static char *_c398fb1564549b4ae0e7ae1f7174e15[] = {
/* columns rows colors chars-per-pixel */
"32 32 256 2 ",
"   c black",
".  c #020A06",
"X  c #180300",
"o  c #001400",
"O  c #000A10",
"+  c #001B1B",
"@  c #051716",
"#  c #291C1D",
"$  c #00211E",
"%  c #152713",
"&  c #2B201F",
"*  c #010328",
"=  c #000033",
"-  c #031536",
";  c #01242D",
":  c #002B2A",
">  c #0A2825",
",  c #003929",
"<  c #002837",
"1  c #003535",
"2  c #003B34",
"3  c #093B3B",
"4  c #183737",
"5  c #152F2F",
"6  c #242927",
"7  c #342626",
"8  c #22322D",
"9  c #223233",
"0  c #2B3C3A",
"q  c #263A39",
"w  c #383C3B",
"e  c #421431",
"r  c #6F1C2F",
"t  c #613B28",
"y  c #347800",
"u  c #00473D",
"i  c #04452B",
"p  c #334D35",
"a  c #7D4A00",
"s  c #79481B",
"d  c #765638",
"f  c #6E502F",
"g  c #797423",
"h  c #000043",
"j  c #003D48",
"k  c #0E3454",
"l  c #2B3F43",
"z  c #283052",
"x  c #463A46",
"c  c #77374C",
"v  c #7F3B54",
"b  c #6D1A62",
"n  c #793E62",
"m  c #044547",
"M  c #1C4141",
"N  c #184848",
"B  c #0D5051",
"V  c #274746",
"C  c #3B4A4A",
"Z  c #384849",
"A  c #23524A",
"S  c #2B5658",
"D  c #375454",
"F  c #394857",
"G  c #2B7151",
"H  c #2D5363",
"J  c #2D736F",
"K  c #187777",
"L  c #464948",
"P  c #544849",
"I  c #524D57",
"U  c #435455",
"Y  c #485958",
"T  c #565B5B",
"R  c #4B4D55",
"E  c #655556",
"W  c #48625F",
"Q  c #546A50",
"!  c #776246",
"~  c #495766",
"^  c #4C6362",
"/  c #476667",
"(  c #596666",
")  c #5B7673",
"_  c #5C6C74",
"`  c #646B6B",
"'  c #696F6D",
"]  c #676A78",
"[  c #647473",
"{  c #697372",
"}  c #697A7B",
"|  c #737D7B",
" . c #60706C",
".. c #950000",
"X. c #820433",
"o. c #995B00",
"O. c #89550F",
"+. c #986200",
"@. c #B96E00",
"#. c #B47902",
"$. c #AC7511",
"%. c #8D5D3C",
"&. c #996826",
"*. c #96752B",
"=. c #AB742F",
"-. c #BB5A2E",
";. c #C07800",
":. c #CC7B2C",
">. c #8D0041",
",. c #A80644",
"<. c #CA0052",
"1. c #E9005D",
"2. c #ED085C",
"3. c #FD0469",
"4. c #FF176C",
"5. c #CD275B",
"6. c #904B53",
"7. c #A25042",
"8. c #B2774A",
"9. c #96536F",
"0. c #B44A73",
"q. c #93796F",
"w. c #AE6C73",
"e. c #C06550",
"r. c #CF5372",
"t. c #F95563",
"y. c #E77B58",
"u. c #309927",
"i. c #1FA832",
"p. c #778500",
"a. c #62862E",
"s. c #7BA83F",
"d. c #5CA92D",
"f. c #50D204",
"g. c #5DEF00",
"h. c #59F500",
"j. c #4BF500",
"k. c #6AFC02",
"l. c #3C905D",
"z. c #368B72",
"x. c #4B8554",
"c. c #668178",
"v. c #71836F",
"b. c #71AD69",
"n. c #77A450",
"m. c #B98702",
"M. c #B88B1B",
"N. c #989C34",
"B. c #B38927",
"V. c #A99F2D",
"C. c #BA9326",
"Z. c #B48E38",
"A. c #A8B522",
"S. c #D08D0A",
"D. c #EC9105",
"F. c #F89903",
"G. c #F29416",
"H. c #FFA003",
"J. c #D78834",
"K. c #C39C38",
"L. c #C49127",
"P. c #FD9B35",
"I. c #E7912E",
"U. c #CDA93B",
"Y. c #CCA822",
"T. c #FFA133",
"R. c #E0B83C",
"E. c #91C530",
"W. c #A0CD10",
"Q. c #D7D700",
"!. c #B29646",
"~. c #92A75A",
"^. c #968D77",
"/. c #A89C78",
"(. c #80B769",
"). c #B8AE67",
"_. c #ACB442",
"`. c #C09940",
"'. c #CDA942",
"]. c #C6A648",
"[. c #D4B54D",
"{. c #D9BC58",
"}. c #C9AA4F",
"|. c #CD8F6D",
" X c #D5BC66",
".X c #E4B963",
"XX c #8BCA47",
"oX c #97D549",
"OX c #92C544",
"+X c #ADD24E",
"@X c #ABED51",
"#X c #B1F151",
"$X c #B9D878",
"%X c #DEC35B",
"&X c #E5C85B",
"*X c #D9C36A",
"=X c #DEC974",
"-X c #E4CB65",
";X c #E3CC75",
":X c #EBD979",
">X c #EBE370",
",X c #973989",
"<X c #872F85",
"1X c #D93F86",
"2X c #947583",
"3X c #A648A3",
"4X c #A04990",
"5X c #D95985",
"6X c #E35D8B",
"7X c #FF5C9E",
"8X c #D66089",
"9X c #FD689B",
"0X c #EB6391",
"qX c #FF6EA1",
"wX c #058989",
"eX c #2BA19B",
"rX c #02A3A3",
"tX c #07B6B8",
"yX c #0FB2B7",
"uX c #21B5B5",
"iX c #2CABAC",
"pX c #788585",
"aX c #688D8A",
"sX c #51B6B3",
"dX c #559393",
"fX c #05C9AF",
"gX c #42CB9C",
"hX c #70C083",
"jX c #00C8C7",
"kX c #1BC2C2",
"lX c #00CFD3",
"zX c #18D9D8",
"xX c #00D7D7",
"cX c #04E8E8",
"vX c #02F9FA",
"bX c #12F2F3",
"nX c #33C7C4",
"mX c #64DFD8",
"MX c #919494",
"NX c #B19D9F",
"BX c #87A387",
"VX c #9BAF9E",
"CX c #B7A59F",
"ZX c #85A5A5",
"AX c #E6A186",
"SX c #FE9295",
"DX c #93C9AF",
"FX c #C1D49C",
"GX c #EDDC92",
"HX c #DDE098",
"JX c #F7E787",
"KX c #FFF89A",
"LX c #F9E59F",
"PX c #D1DFA1",
"IX c #83E2DB",
"UX c None",
/* pixels */
"UXUXUXUXUXUXUXUXUXUXUXUXUXUXW.$X+XW.UXUXUXUXUXUXUXUXUXUXUXUXUXUX",
"UXUXUXUXUXUXUXUXUXUXb.d.b.v.i VX} Q ^.p._.>XUXUXUXUXUXUXUXUXUXUX",
"UXUXUXUXUXUXUXUX(.x.^ ) k - l s.u.* * z F v.N.Q.UXUXUXUXUXUXUXUX",
"UXUXUXUXUXUXUXl.} * V Z o - a.oXf.C 8 ) /   / v.A.UXUXUXUXUXUXUX",
"UXUXUXUXUXgXG ~ q > : L / - XXXXj.b.~   l 3 w - H ).UXUXUXUXUXUX",
"UXUXUXUXfXaXC ( w D . T / p @XXXh.f.= % @ ^ q { R h N.UXUXUXUXUX",
"UXUXUXUXz.D A : D | m , z s.#XXXh.k.G Y 1 ( L C 5 { H !.UXUXUXUX",
"UXUXUXeXI ( O [ T   c.Y { oX@XE.g.k.d.] A @ @ + 5 q 0  .K.UXUXUX",
"UXUXnX| : U Z   MX| ; k a.#X@XXXj.h.g.  q   MX} ^ T o ~ q.UXUXUX",
"UXUXwXx ^ ( U ' ^ =.=.f XX+X_.V.A.W.k.u.k wXaXI A 8 { Y B 8.UXUX",
"UXmX[ Z ^ : M L   %.`.K.V.#.#.#.#.$.m.~.tXsXJ   A M Z A 1 ^.UXUX",
"UXiX# 2 @ 8 c.$ ` E 8.=.m.$.Z.'.].B.#.m./.sXB [ X S M ; Y ' -.UX",
"UXwX( ^ Z [ 5 M dXiX).m.Z.:X:X-X-XJX*XB.Y.|.0.I o ) Y M T N 7.UX",
"UXJ 7 9 & Y wXuXlXDXR.].JXKX{.{.!.*XKX=X[..X7X7Xr.v u u } O 6.UX",
"jXm 6 K rXlXxXzXlXFX&X*XJX:X{.JX:X`.JXJX{.:XSX7XqXqX0X0.P m r UX",
"IXZXrXkXtXyXyXuXtXHXJX{.-X{.'.-X-X%X%X%X;XKXAX1X8X5X6X6X5X9.NXUX",
"mXaXrXzXcXvXbXbXcXHXLX*XU.U.K.'.U.'.'.U.LXGXy.1.2.1.2.1.<.c 2XUX",
"fXu E / rXcXvXbXvXDXS.;Xm.C.M.M.C.[.m.].-Xm.t.3.4.2.5.X.A 2 r UX",
"UXG ; 6 X 7 z.kXvXmXm.=X Xo.M.L.[.`.o.:X}.:.4.1.,.e , 2 0 j 6.UX",
"UXJ R 0 ; ) P   N nX/.o.=X}.&.&.&.*. X}.+.e.>.c.u $ T }   } w.UX",
"UXz.[ S V N N ( . ..r.8.O.Z.].K.K.].*.O.~.b.  W D 9 V V @ x 0.UX",
"UXhXi q V u 4  .  r.6Xw.L.o.a O.O.a @.B.i.b.p ` Y 4 V 4 ) n UXUX",
"UXUXx.{ 6 R C : MX9.E   :.T.I.M.S.G.H.O., y MXL   ) T 2 ^ ,XUXUX",
"UXUX(.p ; ( L 3 } m [ m d P.P.J.F.H.S.O X * | ` ` : N m b UXUXUX",
"UXUXUXn.= V q 4   # N U j J.P.J.D.F.&.j ' Z (   w D ) e 3XUXUXUX",
"UXUXUXUXg _ / 5 M 9 @ } < &.P.J.F.G.# 5 C 6 Y U D A T ,XUXUXUXUX",
"UXUXUXUXUXg - ^ (   { 4 5 0 P.J.F.=.j pX@ @ $ R Y $ <XUXUXUXUXUX",
"UXUXUXUXUXUX*.( B 8 L S X * :.I.D.f S w 4 ( Z D x ,XUXUXUXUXUXUX",
"UXUXUXUXUXUXUX|.! j H q ' ; f J.;.S ` O : W C 2X3XUXUXUXUXUXUXUX",
"UXUXUXUXUXUXUXUXUX$.^.C / D < &.d < ^ 2 L c 9.UXUXUXUXUXUXUXUXUX",
"UXUXUXUXUXUXUXUXUXUXUX@.8.q.s NXw.f q.6.0.UXUXUXUXUXUXUXUXUXUXUX",
"UXUXUXUXUXUXUXUXUXUXUXUXUXUXUXUXUXUXUXUXUXUXUXUXUXUXUXUXUXUXUXUX"
};
