/* XPM */
static char *d0db236b0ee84e4df24b8685ea6433e1[] = {
/* columns rows colors chars-per-pixel */
"16 16 187 2 ",
"   c #1E1E29292929",
".  c #1E1E2E2E2D2D",
"X  c #23232E2E2727",
"o  c #20202A2A2B2B",
"O  c #21212B2B2B2B",
"+  c #21212B2B2C2C",
"@  c #23232B2B2D2D",
"#  c #22222B2B2E2E",
"$  c #23232E2E2D2D",
"%  c #23232E2E2E2E",
"&  c #24242C2C2C2C",
"*  c #24242D2D2D2D",
"=  c #2F2F2F2F2828",
"-  c #252530302F2F",
";  c #28283C3C2A2A",
":  c #23232F2F3030",
">  c #28282E2E3030",
",  c #212130303030",
"<  c #202031313131",
"1  c #232330303030",
"2  c #222231313030",
"3  c #232331313232",
"4  c #212133333232",
"5  c #202032323333",
"6  c #212132323333",
"7  c #242430303030",
"8  c #272730303030",
"9  c #262630303131",
"0  c #272730303131",
"q  c #262631313131",
"w  c #262631313232",
"e  c #242432323232",
"r  c #252532323232",
"t  c #262633333333",
"y  c #272733333333",
"u  c #242433333434",
"i  c #242435353535",
"p  c #242434343737",
"a  c #292930303131",
"s  c #2A2A33333232",
"d  c #2C2C34343232",
"f  c #282834343434",
"g  c #292936363434",
"h  c #292937373737",
"j  c #2A2A3C3C3737",
"k  c #2F2F36363838",
"l  c #212139393939",
"z  c #25253D3D3D3D",
"x  c #292938383838",
"c  c #2A2A39393A3A",
"v  c #29293C3C3838",
"b  c #323230303333",
"n  c #393936363737",
"m  c #33333D3D3232",
"M  c #38383D3D3434",
"N  c #363633333B3B",
"B  c #393930303E3E",
"V  c #47473D3D2323",
"C  c #4C4C21213636",
"Z  c #545429293E3E",
"A  c #545432323B3B",
"S  c #63633B3B3737",
"D  c #2E2E42423A3A",
"F  c #2B2B42423E3E",
"G  c #333343433535",
"H  c #3B3B41413333",
"J  c #313147473939",
"K  c #363644443E3E",
"L  c #3B3B40403A3A",
"P  c #38384A4A3939",
"I  c #373762622525",
"U  c #333361612A2A",
"Y  c #4D4D4A4A2F2F",
"T  c #535347472929",
"R  c #505047472D2D",
"E  c #50505F5F2F2F",
"W  c #424245453737",
"Q  c #40404B4B3131",
"!  c #42424A4A3434",
"~  c #494947473A3A",
"^  c #575752523838",
"/  c #65654E4E2A2A",
"(  c #696951513131",
")  c #6C6C52523535",
"_  c #5D5D6B6B2B2B",
"`  c #57576E6E3B3B",
"'  c #4B4B72723030",
"]  c #61617B7B3A3A",
"[  c #3B3B35354545",
"{  c #4C4C34344C4C",
"}  c #51513B3B4B4B",
"|  c #606039394C4C",
" . c #67673B3B4E4E",
".. c #60603E3E4D4D",
"X. c #232340404040",
"o. c #222243434646",
"O. c #2C2C42424343",
"+. c #282848484646",
"@. c #313148484848",
"#. c #363652524141",
"$. c #242457575757",
"%. c #2A2A5C5C5050",
"&. c #181860606060",
"*. c #181862626363",
"=. c #161669696A6A",
"-. c #15156A6A6A6A",
";. c #1B1B68686868",
":. c #2B2B65656161",
">. c #2B2B71716F6F",
",. c #323272726363",
"<. c #414140404444",
"1. c #666645454444",
"2. c #67674F4F4444",
"3. c #666641414D4D",
"4. c #6F6F59594545",
"5. c #6B6B48485050",
"6. c #4C4C69694040",
"7. c #565672724242",
"8. c #585878784040",
"9. c #84845A5A1111",
"0. c #9B9B6A6A1717",
"q. c #9C9C75751C1C",
"w. c #A6A674742424",
"e. c #A8A874742020",
"r. c #A9A973732626",
"t. c #AEAE7F7F2323",
"y. c #ACAC71712E2E",
"u. c #A3A37C7C2B2B",
"i. c #B5B575752727",
"p. c #B3B371713232",
"a. c #A0A015154E4E",
"s. c #959522224C4C",
"d. c #D9D909095E5E",
"f. c #EBEB2A2A5F5F",
"g. c #A1A157574C4C",
"h. c #AFAF44446C6C",
"j. c #A8A858586D6D",
"k. c #4B4B8D8D1616",
"l. c #5151ACAC1717",
"z. c #7979B6B63737",
"x. c #5D5DDEDE0909",
"c. c #7A7ACDCD0808",
"v. c #5C5C8B8B7171",
"b. c #9B9B8D8D2424",
"n. c #AFAF8B8B2020",
"m. c #B4B488882E2E",
"M. c #B9B98E8E2828",
"N. c #B8B890902626",
"B. c #B9B98F8F3131",
"V. c #AEAE93933D3D",
"C. c #B9B993933535",
"Z. c #8383A2A23C3C",
"A. c #9B9BB9B93131",
"S. c #DFDF89890707",
"D. c #D6D686860909",
"F. c #D8D885852525",
"G. c #DFDF8B8B2B2B",
"H. c #C3C399992D2D",
"J. c #C6C69F9F3434",
"K. c #CBCBA6A63C3C",
"L. c #CCCCA9A93F3F",
"P. c #8E8ED5D53F3F",
"I. c #BABAA6A64646",
"U. c #CACA9D9D5353",
"Y. c #DFDFB1B15757",
"T. c #D9D9BFBF5757",
"R. c #D9D9BCBC5858",
"E. c #DADABDBD5959",
"W. c #DCDCC0C05A5A",
"Q. c #DFDFC2C25A5A",
"!. c #DEDEC3C35D5D",
"~. c #DDDDC0C05E5E",
"^. c #E4E4CBCB6666",
"/. c #E4E4CCCC6767",
"(. c #E4E4CDCD6A6A",
"). c #EAEACBCB7474",
"_. c #DDDD4F4F8383",
"`. c #EDED73738888",
"'. c #2C2C95958686",
"]. c #33339E9E8B8B",
"[. c #0909A2A2A2A2",
"{. c #0A0AAEAEAEAE",
"}. c #0000BDBDBFBF",
"|. c #5959CDCDA9A9",
" X c #4F4FE0E0BCBC",
".X c #0000DFDFE1E1",
"XX c None",
/* pixels */
"XXXXXXXXXXXX6.7.` _ XXXXXXXXXXXX",
"XXXXXXXX#.j e ' I * G E XXXXXXXX",
"XXXX,.F * @ J z.l.X + e Q XXXXXX",
"XXXX+.i c p 8.P.x.U @ * 9 ! XXXX",
"XX$.h f ~ Y Z.A.c.k.o.@.t h ^ XX",
"XXz 9 e W u.n.M.N.b.v.O.. < L XX",
"&.e X.-.].I.E.!.E.E.U.j...k s S ",
">.-.[.}.|.(.(.Q.E./.).`._.h.| 5.",
":.;.{..X XR.J.H.K.L.Y.f.d.a.Z 3.",
"%.@ l *.'.V.B.n.m.C.p.s.C > e  .",
"XXv 4 2 A g.r.w.e.q.] D < < N XX",
"XXP X 4 { N y.F.S.9.; K s t { XX",
"XXXXG 2   6 ( G.D.V @ e e [ XXXX",
"XXXXXXH * e = i.0.h O s B XXXXXX",
"XXXXXXXXR M d / T > b } XXXXXXXX",
"XXXXXXXXXXXX) 4.2.1.XXXXXXXXXXXX"
};
